<svg width="17" height="17" viewBox="0 0 17 17" fill="none" xmlns="http://www.w3.org/2000/svg">
<path fill-rule="evenodd" clip-rule="evenodd" d="M10.5615 2.33634C9.12331 1.999 7.62661 1.999 6.18847 2.33634C4.31843 2.77499 2.85829 4.23513 2.41963 6.10518C2.08229 7.54332 2.08229 9.04002 2.41963 10.4782C2.48683 10.7646 2.57799 11.0415 2.69092 11.3065L3.55906 10.4383C5.10832 8.88907 7.62017 8.88908 9.16944 10.4383L9.98353 11.2524L9.99777 11.2382C11.1511 10.0849 12.9545 10.0183 14.1839 10.9831C14.241 10.8185 14.29 10.6501 14.3303 10.4782C14.6676 9.04001 14.6676 7.54332 14.3303 6.10518C13.8916 4.23514 12.4315 2.77499 10.5615 2.33634ZM15.1234 12.5356C15.4211 12.0059 15.6477 11.4301 15.7906 10.8207C16.1808 9.15726 16.1808 7.42608 15.7906 5.76262C15.2219 3.33794 13.3287 1.44473 10.904 0.875978C9.24055 0.485785 7.50937 0.485785 5.84592 0.875978C3.42124 1.44473 1.52803 3.33794 0.959272 5.76262C0.569078 7.42608 0.569077 9.15726 0.959272 10.8207C1.52803 13.2454 3.42124 15.1386 5.84592 15.7074C7.50937 16.0975 9.24055 16.0975 10.904 15.7074C12.601 15.3093 14.0376 14.2625 14.9421 12.8388C15.0282 12.7514 15.0889 12.647 15.1234 12.5356ZM13.4587 12.3495C12.8233 11.6567 11.7307 11.6265 11.0584 12.2989L11.0442 12.3131L12.2421 13.511C12.7099 13.1942 13.1211 12.8013 13.4587 12.3495ZM10.7959 14.1861L8.10878 11.499C7.1453 10.5355 5.58319 10.5355 4.61972 11.499L3.50382 12.6149C4.1901 13.4152 5.12272 13.997 6.18847 14.247C7.62661 14.5843 9.12331 14.5843 10.5614 14.247C10.6403 14.2285 10.7185 14.2082 10.7959 14.1861Z" fill="white"/>
<path d="M10.2511 4.46073C10.3462 4.06864 10.9038 4.06864 10.9989 4.46073L11.2605 5.5396C11.2944 5.67958 11.4037 5.78888 11.5437 5.82283L12.6226 6.08444C13.0147 6.17951 13.0147 6.73715 12.6226 6.83223L11.5437 7.09384C11.4037 7.12778 11.2944 7.23708 11.2605 7.37707L10.9989 8.45593C10.9038 8.84802 10.3462 8.84802 10.2511 8.45593L9.9895 7.37707C9.95555 7.23708 9.84625 7.12778 9.70626 7.09384L8.6274 6.83223C8.6029 6.82629 8.57992 6.81854 8.55848 6.80921C8.23684 6.66926 8.25982 6.17357 8.6274 6.08444L9.70626 5.82283C9.84625 5.78888 9.95555 5.67958 9.9895 5.5396L10.2511 4.46073Z" fill="white"/>
<path d="M16.6667 15.8333C16.6667 16.2936 16.2936 16.6667 15.8333 16.6667C15.3731 16.6667 15 16.2936 15 15.8333C15 15.3731 15.3731 15 15.8333 15C16.2936 15 16.6667 15.3731 16.6667 15.8333Z" fill="white"/>
<path d="M16.6667 0.833333C16.6667 1.29357 16.2936 1.66667 15.8333 1.66667C15.3731 1.66667 15 1.29357 15 0.833333C15 0.373096 15.3731 0 15.8333 0C16.2936 0 16.6667 0.373096 16.6667 0.833333Z" fill="white"/>
<path d="M1.66667 15.8333C1.66667 16.2936 1.29357 16.6667 0.833333 16.6667C0.373096 16.6667 0 16.2936 0 15.8333C0 15.3731 0.373096 15 0.833333 15C1.29357 15 1.66667 15.3731 1.66667 15.8333Z" fill="white"/>
<path d="M1.66667 0.833333C1.66667 1.29357 1.29357 1.66667 0.833333 1.66667C0.373096 1.66667 0 1.29357 0 0.833333C0 0.373096 0.373096 0 0.833333 0C1.29357 0 1.66667 0.373096 1.66667 0.833333Z" fill="white"/>
</svg>
