<svg width="24" height="24" viewBox="0 0 24 24" fill="none" xmlns="http://www.w3.org/2000/svg">
<path fill-rule="evenodd" clip-rule="evenodd" d="M7.99988 6.99986C7.99988 6.44757 8.44759 5.99986 8.99988 5.99986H14.9999C15.5522 5.99986 15.9999 6.44757 15.9999 6.99986C15.9999 7.55214 15.5522 7.99986 14.9999 7.99986H12.9999V15.9999H14.9999C15.5522 15.9999 15.9999 16.4476 15.9999 16.9999C15.9999 17.5521 15.5522 17.9999 14.9999 17.9999H8.99988C8.44759 17.9999 7.99988 17.5521 7.99988 16.9999C7.99988 16.4476 8.44759 15.9999 8.99988 15.9999H10.9999V7.99986H8.99988C8.44759 7.99986 7.99988 7.55214 7.99988 6.99986Z" fill="url(#paint0_linear_40019923_19)"/>
<path d="M18.9999 21.9999C18.9999 22.5521 18.5522 22.9999 17.9999 22.9999C17.4476 22.9999 16.9999 22.5521 16.9999 21.9999C16.9999 21.4476 17.4476 20.9999 17.9999 20.9999C18.5522 20.9999 18.9999 21.4476 18.9999 21.9999Z" fill="url(#paint1_linear_40019923_19)"/>
<path d="M22.9999 17.9999C22.9999 18.5521 22.5522 18.9999 21.9999 18.9999C21.4476 18.9999 20.9999 18.5521 20.9999 17.9999C20.9999 17.4476 21.4476 16.9999 21.9999 16.9999C22.5522 16.9999 22.9999 17.4476 22.9999 17.9999Z" fill="url(#paint2_linear_40019923_19)"/>
<path fill-rule="evenodd" clip-rule="evenodd" d="M9.0045 22.3146C8.83069 22.7802 8.31229 23.0168 7.84661 22.843C4.83018 21.7172 2.4072 19.38 1.16961 16.4227C0.977725 15.9642 1.19388 15.4369 1.6524 15.245C2.11093 15.0531 2.63819 15.2693 2.83008 15.7278C3.87608 18.2273 5.92642 20.2051 8.47603 21.1567C8.9417 21.3305 9.17831 21.8489 9.0045 22.3146Z" fill="url(#paint3_linear_40019923_19)"/>
<path fill-rule="evenodd" clip-rule="evenodd" d="M22.3152 9.02062C21.8497 9.19479 21.3311 8.95858 21.1569 8.49304C20.1978 5.92939 18.1969 3.87057 15.6692 2.83236C15.2094 2.64351 14.9898 2.11769 15.1786 1.65791C15.3675 1.19813 15.8933 0.978486 16.3531 1.16733C19.3425 2.39519 21.7075 4.82783 22.8428 7.86232C23.017 8.32786 22.7807 8.84645 22.3152 9.02062Z" fill="url(#paint4_linear_40019923_19)"/>
<path d="M3.71041 1.58482C3.83488 1.07154 4.56488 1.07154 4.68934 1.58482L5.03181 2.99715C5.07625 3.1804 5.21933 3.32349 5.40259 3.36792L6.81492 3.71039C7.3282 3.83486 7.3282 4.56486 6.81492 4.68932L5.40259 5.03179C5.37968 5.03735 5.3574 5.04444 5.33587 5.05296C5.1851 5.11263 5.07069 5.24222 5.03181 5.40257L4.68934 6.8149C4.68156 6.84698 4.67142 6.87705 4.65921 6.90512C4.47599 7.32617 3.8271 7.2961 3.71041 6.8149L3.36794 5.40257C3.36517 5.39111 3.362 5.37982 3.35847 5.36869C3.30546 5.20181 3.16897 5.07345 2.99717 5.03179L1.58484 4.68932C1.55276 4.68154 1.52268 4.6714 1.49461 4.65918C1.07356 4.47597 1.10364 3.82708 1.58484 3.71039L2.99717 3.36792C3.18042 3.32349 3.32351 3.1804 3.36794 2.99715L3.71041 1.58482Z" fill="url(#paint5_linear_40019923_19)"/>
<defs>
<linearGradient id="paint0_linear_40019923_19" x1="1.09961" y1="12.0497" x2="22.9999" y2="12.0497" gradientUnits="userSpaceOnUse">
<stop stop-color="#98C6F7"/>
<stop offset="1" stop-color="#EB5B92"/>
</linearGradient>
<linearGradient id="paint1_linear_40019923_19" x1="1.09961" y1="12.0497" x2="22.9999" y2="12.0497" gradientUnits="userSpaceOnUse">
<stop stop-color="#98C6F7"/>
<stop offset="1" stop-color="#EB5B92"/>
</linearGradient>
<linearGradient id="paint2_linear_40019923_19" x1="1.09961" y1="12.0497" x2="22.9999" y2="12.0497" gradientUnits="userSpaceOnUse">
<stop stop-color="#98C6F7"/>
<stop offset="1" stop-color="#EB5B92"/>
</linearGradient>
<linearGradient id="paint3_linear_40019923_19" x1="1.09961" y1="12.0497" x2="22.9999" y2="12.0497" gradientUnits="userSpaceOnUse">
<stop stop-color="#98C6F7"/>
<stop offset="1" stop-color="#EB5B92"/>
</linearGradient>
<linearGradient id="paint4_linear_40019923_19" x1="1.09961" y1="12.0497" x2="22.9999" y2="12.0497" gradientUnits="userSpaceOnUse">
<stop stop-color="#98C6F7"/>
<stop offset="1" stop-color="#EB5B92"/>
</linearGradient>
<linearGradient id="paint5_linear_40019923_19" x1="1.09961" y1="12.0497" x2="22.9999" y2="12.0497" gradientUnits="userSpaceOnUse">
<stop stop-color="#98C6F7"/>
<stop offset="1" stop-color="#EB5B92"/>
</linearGradient>
</defs>
</svg>
